<svg width="105" height="48" viewBox="0 0 105 48" fill="none" xmlns="http://www.w3.org/2000/svg">
<path d="M104.089 2.08669C104.091 2.36674 104.037 2.64448 103.931 2.90348C103.824 3.16249 103.667 3.39751 103.468 3.59467C103.269 3.79182 103.033 3.94712 102.773 4.05136C102.513 4.15564 102.235 4.20676 101.955 4.20168C101.669 4.21732 101.384 4.1746 101.115 4.07616C100.847 3.97774 100.602 3.82564 100.394 3.62917C100.187 3.4327 100.021 3.19598 99.9083 2.93348C99.7955 2.67098 99.7371 2.3882 99.7371 2.10242C99.7371 1.81664 99.7955 1.53387 99.9083 1.27136C100.021 1.00886 100.187 0.772144 100.394 0.575672C100.602 0.3792 100.847 0.227101 101.115 0.128664C101.384 0.0302272 101.669 -0.0124839 101.955 0.00314728C102.233 -0.00356943 102.509 0.0453616 102.767 0.147058C103.026 0.248754 103.262 0.40116 103.461 0.595308C103.659 0.789456 103.817 1.02142 103.925 1.27754C104.033 1.53367 104.089 1.80878 104.089 2.08669ZM100.312 2.08669C100.305 2.30439 100.342 2.52122 100.421 2.72419C100.5 2.92715 100.619 3.11206 100.772 3.26784C100.924 3.4236 101.106 3.54702 101.307 3.6307C101.508 3.71437 101.724 3.75657 101.942 3.75477C102.156 3.75322 102.367 3.70883 102.563 3.62421C102.76 3.53959 102.937 3.41647 103.085 3.26212C103.233 3.10778 103.348 2.92534 103.424 2.72561C103.501 2.52588 103.536 2.3129 103.528 2.09927C103.542 1.87961 103.511 1.65946 103.436 1.45239C103.361 1.24532 103.245 1.05574 103.095 0.89532C102.944 0.7349 102.762 0.607052 102.56 0.519656C102.358 0.43226 102.14 0.387176 101.92 0.387176C101.7 0.387176 101.482 0.43226 101.28 0.519656C101.078 0.607052 100.896 0.7349 100.745 0.89532C100.595 1.05574 100.479 1.24532 100.404 1.45239C100.329 1.65946 100.298 1.87961 100.312 2.09927V2.08669ZM101.571 3.18196H101.086V1.09842C101.352 1.04974 101.621 1.02656 101.892 1.02918C102.143 1.0105 102.395 1.06516 102.615 1.18655C102.681 1.24217 102.733 1.31178 102.768 1.39022C102.803 1.46867 102.819 1.55396 102.817 1.63976C102.809 1.75742 102.762 1.86902 102.683 1.95685C102.605 2.04467 102.499 2.10366 102.383 2.12445C102.486 2.1675 102.577 2.23746 102.644 2.32711C102.711 2.41676 102.754 2.52282 102.767 2.63432C102.786 2.8159 102.837 2.99267 102.918 3.15678H102.395C102.315 2.99619 102.26 2.82424 102.231 2.64691C102.194 2.4203 102.068 2.31959 101.797 2.31959H101.571V3.18196ZM101.571 1.99856H101.803C102.068 1.99856 102.282 1.91043 102.282 1.69642C102.282 1.4824 102.143 1.37538 101.841 1.37538C101.751 1.36492 101.661 1.36492 101.571 1.37538V1.99856Z" fill="#4F575D"/>
<path d="M50.3135 3.74219C41.8031 3.74219 35.4138 9.82914 34.6899 17.8549H43.2191C43.7859 14.1536 46.5175 11.3021 50.2251 11.3021C53.0895 11.3021 55.0531 12.7184 56.7591 14.8271L62.9907 9.96762C60.3471 6.3167 56.4191 3.74219 50.3135 3.74219Z" fill="url(#paint0_linear)"/>
<path d="M56.9732 23.7712C55.1793 25.9617 53.3477 27.4284 50.2253 27.4284C46.5241 27.4284 43.8049 24.6587 43.2257 20.8945H34.6775C34.9427 24.7648 36.6806 28.3863 39.5338 31.0147C42.3868 33.6431 46.1384 35.0786 50.0176 35.0261C56.5893 35.0261 60.3848 32.1494 63.2048 28.2404L56.9732 23.7712Z" fill="#181745"/>
<path d="M0 34.3899H8.69924L10.0337 31.0222H20.7976L18.2608 24.8283H12.4949L15.3338 17.6964L11.2738 7.79492L0 34.3899Z" fill="url(#paint1_linear)"/>
<path d="M69.0337 33.403L79.2249 19.3345L69.0401 5.29101H76.6377L86.5205 19.3345L76.3165 33.403H69.0337ZM66.8809 4.18945L77.8653 19.3345L66.8809 34.5046H76.9145L87.8485 19.3974L87.9053 19.3156L77.2105 4.18945H66.8809Z" fill="#4F575D"/>
<path d="M84.9087 10.767L89.5039 17.1875L98.9143 4.19531H89.6547L84.9087 10.767Z" fill="url(#paint2_linear)"/>
<path d="M20.6719 4.26562H12.7721H12.7658L12.7344 4.34119L16.7567 14.1168L16.7818 14.0538L21.207 24.8303H21.1692L23.7123 31.0243H23.7437L25.1223 34.392H33.8278L21.4651 4.26562H20.6719Z" fill="#181745"/>
<path d="M4.37479 44.8268C3.91027 44.5032 3.3789 44.288 2.82001 44.1972C2.545 44.1436 2.27376 44.072 2.008 43.9832C1.82681 43.9188 1.65527 43.8296 1.49813 43.7188C1.39337 43.638 1.31101 43.532 1.25893 43.4104C1.20901 43.2888 1.18541 43.158 1.18969 43.0264C1.19035 42.8936 1.22045 42.7624 1.27781 42.6424C1.33635 42.5232 1.4227 42.4196 1.5296 42.3404C1.65276 42.2476 1.79125 42.1772 1.93875 42.1328C2.11185 42.078 2.29231 42.0504 2.4738 42.0508C2.78265 42.052 3.0891 42.1052 3.38024 42.208C3.69274 42.3316 3.98379 42.5036 4.24259 42.718V42.7496L4.70843 42.12L4.67063 42.0884C4.36935 41.846 4.03155 41.6528 3.66979 41.5156C3.27881 41.3828 2.86775 41.3192 2.45492 41.3268C2.1725 41.324 1.89161 41.3688 1.62402 41.4592C1.38348 41.54 1.15955 41.6636 0.963079 41.824C0.777555 41.9744 0.627167 42.1636 0.522455 42.378C0.420011 42.5968 0.368362 42.8356 0.371384 43.0768C0.363502 43.316 0.406407 43.554 0.497275 43.7756C0.589499 43.9748 0.724971 44.1512 0.893843 44.2916C1.09563 44.4492 1.32074 44.5748 1.56107 44.6632C1.86645 44.7752 2.18002 44.8636 2.49898 44.9276C2.77024 44.9848 3.03732 45.0608 3.29841 45.154C3.47289 45.2104 3.63671 45.2956 3.78309 45.406C3.88716 45.482 3.9696 45.584 4.02227 45.7016C4.06711 45.8248 4.08847 45.9548 4.08523 46.0856C4.08899 46.2284 4.05835 46.3696 3.99589 46.4976C3.93344 46.626 3.84101 46.7372 3.72644 46.822C3.44076 47.026 3.09498 47.128 2.74447 47.1116C2.35625 47.1172 1.9709 47.0444 1.61143 46.8976C1.25223 46.7324 0.922619 46.5088 0.635759 46.2368L0.144775 46.816C0.836087 47.474 1.75867 47.8336 2.713 47.8168C3.00724 47.8188 3.30008 47.776 3.58167 47.6908C3.83108 47.6128 4.06375 47.4888 4.26779 47.3256C4.46563 47.1672 4.62503 46.966 4.73403 46.7368C4.84303 46.508 4.89883 46.2572 4.89723 46.004C4.90739 45.7804 4.86547 45.558 4.77479 45.3536C4.68411 45.1496 4.54719 44.9692 4.37479 44.8268Z" fill="#3B3E40"/>
<path d="M15.4534 42.2284V41.4668H10.959V47.8056H15.4534V47.0436H11.7143V44.9856H15.1638V44.2868H11.7143V42.2284H15.4534Z" fill="#3B3E40"/>
<path d="M37.8248 45.0988C37.8634 45.6384 37.6894 46.1716 37.3401 46.5844C36.9712 46.9088 36.4968 47.088 36.0056 47.088C35.5144 47.088 35.04 46.9088 34.6711 46.5844C34.3247 46.1628 34.1514 45.6248 34.1865 45.08V41.4355H33.4185V45.124C33.4114 45.5184 33.4754 45.9108 33.6073 46.2824C33.7121 46.5984 33.8839 46.8884 34.1109 47.132C34.3438 47.3604 34.6228 47.5364 34.9292 47.6484C35.616 47.8748 36.3575 47.8748 37.0442 47.6484C37.3598 47.54 37.6477 47.364 37.8877 47.132C38.1239 46.8836 38.3042 46.5876 38.4165 46.2636C38.5493 45.8792 38.6132 45.474 38.6053 45.0676V41.4355H37.8311L37.8248 45.0988Z" fill="#3B3E40"/>
<path d="M58.6283 41.4023H57.8667V47.7911H58.6283V41.4023Z" fill="#3B3E40"/>
<path d="M76.9083 41.4023H76.1467V47.7911H76.9083V41.4023Z" fill="#3B3E40"/>
<path d="M98.6563 44.8142C98.1935 44.4874 97.6615 44.2718 97.1015 44.1846C96.8183 44.1254 96.5387 44.0494 96.2643 43.9582C96.0843 43.895 95.9147 43.8058 95.7607 43.6938C95.6511 43.6162 95.5659 43.5094 95.5151 43.3854C95.4675 43.263 95.4443 43.1326 95.4459 43.0014C95.4463 42.8702 95.4763 42.741 95.5343 42.6234C95.5947 42.5018 95.6831 42.3962 95.7923 42.315C95.9123 42.2214 96.0491 42.1506 96.1951 42.1074C96.3687 42.055 96.5491 42.0298 96.7303 42.0318C97.0391 42.0298 97.3463 42.083 97.6367 42.1894C97.9515 42.305 98.2435 42.4754 98.4991 42.693L98.5367 42.7242L98.9963 42.095H98.9647C98.6619 41.851 98.3219 41.6578 97.9575 41.5222C97.5699 41.3838 97.1603 41.3178 96.7491 41.327C96.4643 41.3234 96.1815 41.3682 95.9119 41.459C95.6711 41.5398 95.4475 41.6634 95.2507 41.8242C95.0655 41.973 94.9167 42.1626 94.8167 42.3782C94.7087 42.597 94.6547 42.839 94.6591 43.083C94.6547 43.3198 94.6975 43.5554 94.7851 43.7754C94.8755 43.9758 95.0115 44.1526 95.1815 44.2918C95.3827 44.4502 95.6079 44.5758 95.8487 44.663C96.1551 44.7746 96.4683 44.865 96.7867 44.9338C97.0579 44.9886 97.3251 45.0622 97.5863 45.1542C97.7607 45.2102 97.9247 45.2954 98.0707 45.4058C98.1751 45.4822 98.2575 45.5838 98.3099 45.7018C98.3571 45.8242 98.3807 45.9546 98.3795 46.0858C98.3815 46.2294 98.3491 46.3718 98.2859 46.501C98.2223 46.6298 98.1295 46.7422 98.0143 46.8286C97.7283 47.031 97.3823 47.1306 97.0323 47.1118C96.6439 47.117 96.2587 47.0446 95.8991 46.8978C95.5431 46.7402 95.2139 46.5278 94.9235 46.2682L94.8919 46.2366L94.4011 46.8158L94.4327 46.8474C94.7823 47.1662 95.1847 47.4218 95.6223 47.6026C96.0655 47.7658 96.5347 47.8466 97.0071 47.8418C97.2995 47.8466 97.5907 47.8042 97.8695 47.7158C98.1207 47.6418 98.3539 47.5178 98.5555 47.351C98.7451 47.1954 98.8975 46.9998 99.0027 46.7782C99.1123 46.5438 99.1679 46.2878 99.1663 46.029C99.1851 45.8006 99.1483 45.5706 99.0595 45.3594C98.9707 45.1478 98.8327 44.961 98.6563 44.8142Z" fill="#3B3E40"/>
<path d="M84.4116 47.7933H88.906V47.0381H85.1732V44.9797H88.6228V44.2809H85.1732V42.2225H88.906V41.4609H84.4116V47.7933Z" fill="#3B3E40"/>
<path d="M64.8037 42.2089H66.8685V47.8173H67.6301V42.2089H69.6945V41.4473H64.8037V42.2089Z" fill="#3B3E40"/>
<path d="M49.7467 44.9085C49.9471 44.8113 50.1303 44.6817 50.2879 44.5245C50.4415 44.3701 50.5615 44.1857 50.6403 43.9829C50.7263 43.7601 50.7691 43.5233 50.7663 43.2845C50.7727 43.0193 50.7163 42.7561 50.6027 42.5165C50.4963 42.2869 50.3419 42.0829 50.1495 41.9185C49.9379 41.7497 49.6967 41.6217 49.4383 41.5409C49.1363 41.4489 48.8219 41.4041 48.5067 41.4085H45.8315V47.7977H46.6055V45.2421H48.2927L50.0487 47.7597H50.9991L49.1107 45.0721C49.3287 45.0429 49.5419 44.9877 49.7467 44.9085ZM49.5579 44.2161C49.4119 44.3241 49.2475 44.4053 49.0731 44.4553C48.8687 44.5153 48.6567 44.5453 48.4435 44.5433H46.5991V42.1325H48.4875C48.8887 42.1097 49.2867 42.2177 49.6207 42.4409C49.7511 42.5437 49.8551 42.6761 49.9239 42.8273C49.9931 42.9785 50.0251 43.1437 50.0171 43.3097C50.0207 43.4881 49.9819 43.6649 49.9039 43.8257C49.8227 43.9825 49.7035 44.1165 49.5579 44.2161Z" fill="#3B3E40"/>
<path d="M26.4377 46.2307C26.1897 46.4791 25.9078 46.6911 25.6005 46.8603C25.2688 47.0187 24.9042 47.0963 24.5367 47.0871C24.218 47.0879 23.9026 47.0215 23.6114 46.8919C23.3319 46.7683 23.0811 46.5883 22.875 46.3631C22.6606 46.1359 22.4937 45.8687 22.384 45.5763C22.2634 45.2631 22.2036 44.9299 22.2077 44.5943C22.2035 44.2627 22.2634 43.9335 22.384 43.6247C22.4937 43.3327 22.6606 43.0651 22.875 42.8379C23.0874 42.6107 23.3448 42.4299 23.6309 42.3075C23.917 42.1851 24.2255 42.1235 24.5367 42.1267C24.9051 42.1159 25.2704 42.1959 25.6005 42.3595C25.8809 42.5059 26.1412 42.6879 26.3748 42.9011L27.0042 42.4099C26.8522 42.2671 26.6925 42.1327 26.5258 42.0071C26.3565 41.8859 26.1751 41.7827 25.9845 41.6987C25.7818 41.6127 25.5709 41.5471 25.355 41.5035C25.1026 41.4507 24.845 41.4255 24.5871 41.4279C24.1547 41.4255 23.7264 41.5111 23.3282 41.6799C22.9544 41.8431 22.6164 42.0783 22.3336 42.3723C22.0625 42.6703 21.849 43.0159 21.7041 43.3919C21.548 43.7931 21.469 44.2203 21.4712 44.6507C21.4701 45.0815 21.549 45.5083 21.7041 45.9099C21.8481 46.2823 22.0618 46.6243 22.3336 46.9171C22.6142 47.2075 22.9502 47.4387 23.3219 47.5967C23.7197 47.7659 24.1486 47.8495 24.5808 47.8423C24.8408 47.8447 25.1004 47.8191 25.355 47.7667C25.5713 47.7131 25.782 47.6395 25.9845 47.5463C26.1826 47.4531 26.3703 47.3391 26.5447 47.2067C26.7243 47.0711 26.8927 46.9219 27.0483 46.7595V46.7283L26.4377 46.2307Z" fill="#3B3E40"/>
<defs>
<linearGradient id="paint0_linear" x1="34.6899" y1="10.7985" x2="62.9907" y2="10.7985" gradientUnits="userSpaceOnUse">
<stop stop-color="#0A529D"/>
<stop offset="1" stop-color="#181745"/>
</linearGradient>
<linearGradient id="paint1_linear" x1="0" y1="21.0893" x2="20.7976" y2="21.0893" gradientUnits="userSpaceOnUse">
<stop stop-color="#0A529D"/>
<stop offset="0.61" stop-color="#233065"/>
<stop offset="1" stop-color="#181745"/>
</linearGradient>
<linearGradient id="paint2_linear" x1="2853.82" y1="1057.99" x2="3165.45" y2="1057.99" gradientUnits="userSpaceOnUse">
<stop stop-color="#0A529D"/>
<stop offset="1" stop-color="#181745"/>
</linearGradient>
</defs>
</svg>
